<?xml version="1.0" encoding="UTF-8"?>
<svg version="1.1" xmlns="http://www.w3.org/2000/svg" width="300" height="448">
<path d="M0 0 C16.31942403 12.98892933 27.04889463 28.90973791 30.6171875 49.57421875 C32.85546759 69.6045416 28.25933658 88.64232913 15.87890625 104.6640625 C15.25886719 105.43492188 14.63882813 106.20578125 14 107 C13.53464844 107.60585937 13.06929687 108.21171875 12.58984375 108.8359375 C9.75625885 112.42575245 6.56706767 115.17952789 3 118 C6.93299877 121.25534896 11.03377031 124.10983638 15.28515625 126.921875 C15.98209091 127.38555481 16.67902557 127.84923462 17.39707947 128.32696533 C19.61744118 129.80349867 21.83991525 131.27681563 24.0625 132.75 C25.52813816 133.72374257 26.99363421 134.69769909 28.45898438 135.671875 C29.176539 136.14854111 29.89409363 136.62520721 30.63339233 137.11631775 C32.06079571 138.06529837 33.48741999 139.01545198 34.91323853 139.96681213 C38.15455858 142.12668905 41.40372703 144.26626467 44.69873047 146.34350586 C46.33092529 147.38583374 46.33092529 147.38583374 47.99609375 148.44921875 C48.94540771 149.04307373 49.89472168 149.63692871 50.87280273 150.2487793 C53 152 53 152 53.83325195 154.11254883 C54.04786792 156.62226729 53.61227522 158.55089912 53 161 C52.73703125 162.19625 52.4740625 163.3925 52.203125 164.625 C50.53239047 171.68613486 48.29778815 177.40442369 45 184 C29.82 184 14.64 184 -1 184 C1.22926939 230.81465709 14.73189486 264.19722617 49 296 C52.59497951 299.09383016 56.28298153 302.05473536 60 305 C62.84732631 307.31249069 65.68596331 309.63467878 68.515625 311.96875 C69.94510294 313.13750555 71.38667802 314.29244556 72.859375 315.40625 C93.48515798 331.51400433 104.29602639 360.11338192 107.70263672 385.22509766 C108.23013069 390.14750857 108.4346778 395.0515355 108.5 400 C108.52791626 401.38892456 108.52791626 401.38892456 108.55639648 402.8059082 C108.51699071 406.92974155 108.38859468 409.35548063 106.2265625 412.94140625 C78.27255331 438.78660422 21.76002582 436.13937068 -13.80078125 436.203125 C-15.42102235 436.20736607 -15.42102235 436.20736607 -17.07399559 436.21169281 C-22.80608733 436.22660586 -28.53815449 436.23588144 -34.27026367 436.24023438 C-38.93115175 436.24459261 -43.59185197 436.2583923 -48.25268555 436.28125 C-157.28404159 436.80525836 -157.28404159 436.80525836 -189.83984375 414.01171875 C-193.1751484 409.36159238 -192.70205492 404.95719679 -192.5625 399.375 C-192.54590332 398.25996094 -192.52930664 397.14492188 -192.51220703 395.99609375 C-191.80661915 370.46331769 -182.99306024 344.29995752 -166 325 C-165.33613281 324.19304687 -164.67226562 323.38609375 -163.98828125 322.5546875 C-158.73414376 316.35849579 -152.85322653 311.56611033 -146.43359375 306.66796875 C-142.50839835 303.65868845 -138.8580181 300.38678254 -135.22265625 297.03515625 C-133.21135309 295.19352366 -131.15180328 293.4391381 -129.0625 291.6875 C-102.84323649 268.67983302 -87.22461978 237.54286947 -84 203 C-83.67 196.73 -83.34 190.46 -83 184 C-98.18 184 -113.36 184 -129 184 C-134.69060773 172.61878453 -134.69060773 172.61878453 -135.8125 168 C-136.16248047 166.63875 -136.16248047 166.63875 -136.51953125 165.25 C-136.67808594 164.1775 -136.83664063 163.105 -137 162 C-137.18320801 161.25532471 -137.36641602 160.51064941 -137.55517578 159.7434082 C-138.01182594 156.72038417 -137.98801972 154.91237146 -137 152 C-132.91278121 147.95797699 -128.14739213 145.15008601 -123.25 142.1875 C-121.87661101 141.32140619 -120.50535732 140.45191739 -119.13623047 139.57910156 C-116.39884206 137.84050477 -113.65099711 136.12092452 -110.89160156 134.41748047 C-105.57116078 131.12689464 -100.35335511 127.68458954 -95.125 124.25 C-92.41971915 122.49521619 -89.71015472 120.74725269 -87 119 C-87.72574219 118.28199219 -88.45148438 117.56398437 -89.19921875 116.82421875 C-91.79878546 114.20289835 -94.32462644 111.53967151 -96.8125 108.8125 C-97.60269531 107.95269531 -98.39289063 107.09289062 -99.20703125 106.20703125 C-101 104 -101 104 -101 102 C-101.66 102 -102.32 102 -103 102 C-113.38119479 81.4947802 -119.24932512 61.67773079 -112.39453125 38.921875 C-108.96642545 28.75276654 -103.7719903 17.56193651 -96 10 C-95.34 10 -94.68 10 -94 10 C-94 9.34 -94 8.68 -94 8 C-93.34 8 -92.68 8 -92 8 C-92 7.34 -92 6.68 -92 6 C-89.99537837 4.30612519 -88.00812667 2.76813588 -85.875 1.25 C-85.24770996 0.80333984 -84.62041992 0.35667969 -83.97412109 -0.10351562 C-59.23160772 -17.15370435 -24.59659016 -17.44886311 0 0 Z " fill="#5D9948" transform="translate(192,12)"/>
<path d="M0 0 C1.17578125 1.9609375 1.17578125 1.9609375 2 4 C3.14975864 5.16354472 4.34235268 6.28549472 5.5625 7.375 C18.83926639 20.41037064 24.96177807 37.1329345 25.29272461 55.53979492 C25.40959056 74.1416805 25.40959056 74.1416805 21 83 C20.50242188 84.07121094 20.00484375 85.14242187 19.4921875 86.24609375 C15.67207285 93.93074299 11.00007686 99.91343554 5 106 C4.45988281 106.61230469 3.91976562 107.22460938 3.36328125 107.85546875 C-3.36077573 115.25701258 -12.9912822 120.86828037 -22 125 C-22.66 125 -23.32 125 -24 125 C-18.90552474 131.33189302 -13.69894099 137.54832575 -8.375 143.6875 C-7.81828613 144.33565674 -7.26157227 144.98381348 -6.68798828 145.65161133 C-4.39676428 148.30770374 -2.11558925 150.88630255 0.38671875 153.34765625 C3.83704652 156.7559922 5.43973895 159.07392739 5.6875 164 C5.08244993 173.19161164 2.40224956 182.4943761 -1 191 C-39.28 191 -77.56 191 -117 191 C-122.69060773 179.61878453 -122.69060773 179.61878453 -123.8125 175 C-124.04582031 174.0925 -124.27914062 173.185 -124.51953125 172.25 C-124.67808594 171.1775 -124.83664063 170.105 -125 169 C-125.18320801 168.25532471 -125.36641602 167.51064941 -125.55517578 166.7434082 C-126.01182594 163.72038417 -125.98801972 161.91237146 -125 159 C-120.91278121 154.95797699 -116.14739213 152.15008601 -111.25 149.1875 C-109.87661101 148.32140619 -108.50535732 147.45191739 -107.13623047 146.57910156 C-104.39884206 144.84050477 -101.65099711 143.12092452 -98.89160156 141.41748047 C-93.57116078 138.12689464 -88.35335511 134.68458954 -83.125 131.25 C-80.41971915 129.49521619 -77.71015472 127.74725269 -75 126 C-75.72574219 125.28199219 -76.45148438 124.56398437 -77.19921875 123.82421875 C-79.79878546 121.20289835 -82.32462644 118.53967151 -84.8125 115.8125 C-85.60269531 114.95269531 -86.39289063 114.09289062 -87.20703125 113.20703125 C-89 111 -89 111 -89 109 C-89.66 109 -90.32 109 -91 109 C-101.38119479 88.4947802 -107.24932512 68.67773079 -100.39453125 45.921875 C-96.96642545 35.75276654 -91.7719903 24.56193651 -84 17 C-83.34 17 -82.68 17 -82 17 C-82 16.34 -82 15.68 -82 15 C-81.34 15 -80.68 15 -80 15 C-80 14.34 -80 13.68 -80 13 C-77.99537837 11.30612519 -76.00812667 9.76813588 -73.875 8.25 C-73.24770996 7.80333984 -72.62041992 7.35667969 -71.97412109 6.89648438 C-52.62711951 -6.4356304 -21.45573062 -11.74809458 0 0 Z " fill="#80B54B" transform="translate(180,5)"/>
<path d="M0 0 C18.28748357 0.57148386 38.85549496 4.67796003 53 17 C58.71371682 23.51910776 58.45681504 30.79413256 58.14941406 39.02197266 C57.84594967 43.0394048 56.80947538 46.85750958 55.79296875 50.7421875 C54.6930815 55.2609361 54.11259612 59.80840961 53.52734375 64.41796875 C53.12854734 67.12683032 52.66411354 69.76657265 52.11865234 72.44604492 C51.3461122 76.27151584 50.58726956 80.09919135 49.8425293 83.93017578 C48.71149219 89.74646728 47.5696191 95.56057324 46.42407227 101.37402344 C45.93525422 103.86331757 45.44954757 106.3532248 44.96704102 108.84375 C37.37137958 148.01236396 37.37137958 148.01236396 29 158 C28.49984375 158.62132812 27.9996875 159.24265625 27.484375 159.8828125 C19.20636015 169.16544081 6.01945976 173.33754576 -6 175 C-9.32882054 175.1751974 -12.65532023 175.21077979 -15.98828125 175.23828125 C-16.95600967 175.24802979 -17.9237381 175.25777832 -18.92079163 175.26782227 C-48.57317174 175.50507096 -75.05374248 173.65354569 -103 163 C-99.54586675 140.06101251 -81.37535496 120.82969659 -64 107 C-30.37740751 79.96183187 -6.11521422 48.91463063 -1.29370117 4.98266602 C-1 3 -1 3 0 0 Z " fill="#80B54B" transform="translate(109,212)"/>
<path d="M0 0 C3.60102247 2.64564916 4.81223813 3.89429119 5.5625 8.3125 C3.67852109 20.66302843 -6.61328961 29.41733896 -15.96875 36.828125 C-25.25352183 43.48061616 -36.22040504 50.81217639 -48.015625 50.42578125 C-50 50 -50 50 -52.5 47.6875 C-55.90594079 41.58518942 -55.65316733 35.75625932 -53.875 29.1875 C-49.5784846 16.17805105 -42.33542102 6.87300445 -30.36328125 0.1875 C-21.05404916 -4.49019679 -9.38172612 -4.76744858 0 0 Z " fill="#B1DF67" transform="translate(155,17)"/>
</svg>
